<?xml version="1.0" standalone="no"?>
<!DOCTYPE svg PUBLIC "-//W3C//DTD SVG 20010904//EN"
 "http://www.w3.org/TR/2001/REC-SVG-20010904/DTD/svg10.dtd">
<svg version="1.0" xmlns="http://www.w3.org/2000/svg"
 width="110px" height="110px" viewBox="0 0 1024.000000 1024.000000"
 preserveAspectRatio="xMidYMid meet">
<metadata>
Created by potrace 1.16, written by Peter Selinger 2001-2019
</metadata>
<g transform="translate(0.000000,1024.000000) scale(0.100000,-0.100000)"
fill="#000000" stroke="none">
<path d="M5031 9007 c-45 -23 -66 -63 -65 -124 0 -49 4 -59 32 -84 88 -78 222
-19 222 98 -1 88 -109 151 -189 110z"/>
<path d="M3344 8911 c-2 -2 -4 -164 -4 -359 l0 -354 298 -293 297 -293 -36
-37 -36 -36 -314 306 c-173 169 -340 333 -371 365 l-58 58 0 198 c0 180 -2
201 -21 241 -59 122 -223 147 -324 50 -86 -84 -86 -218 1 -299 39 -36 74 -48
140 -48 l54 0 0 -105 0 -105 222 -217 c123 -120 297 -291 388 -380 l165 -163
-42 -42 -43 -42 -207 205 c-115 113 -353 349 -531 524 -177 175 -328 322 -335
327 -38 24 -107 -17 -107 -64 0 -17 141 -164 530 -553 l530 -530 -60 -60 -60
-59 -127 124 c-219 214 -417 406 -730 709 l-303 293 0 77 c0 71 2 80 26 102
61 57 86 171 55 252 -56 147 -250 193 -372 89 -54 -47 -79 -101 -79 -177 0
-105 46 -171 151 -219 l56 -26 6 -78 7 -77 112 -110 c62 -61 219 -211 348
-334 266 -254 730 -712 730 -721 0 -3 -20 -25 -46 -48 -39 -37 -47 -41 -63
-30 -10 7 -212 203 -449 436 -365 359 -495 482 -507 482 -1 0 -26 4 -54 10
-52 10 -58 15 -407 357 -297 291 -354 351 -354 374 0 43 -20 77 -55 94 -44 20
-83 19 -123 -5 -51 -31 -68 -101 -38 -159 20 -38 38 -51 85 -59 36 -6 62 -29
223 -187 556 -548 531 -525 576 -525 52 0 40 11 527 -465 198 -194 386 -376
418 -406 l58 -54 -70 -69 -70 -69 -163 155 c-90 86 -302 297 -473 469 -501
506 -758 759 -783 769 -27 11 -76 -9 -86 -35 -19 -50 -14 -56 517 -578 287
-283 602 -592 701 -688 l178 -175 -61 -59 c-34 -33 -66 -61 -69 -63 -8 -2
-211 189 -507 477 -88 86 -214 199 -280 252 -66 52 -169 141 -230 197 -102 95
-110 106 -117 148 -17 118 -126 189 -249 163 -166 -36 -216 -257 -83 -367 68
-56 156 -64 240 -21 32 16 40 17 53 6 9 -8 70 -61 136 -119 66 -57 181 -155
255 -217 151 -126 661 -610 659 -626 -1 -5 -28 -34 -60 -64 l-58 -53 -28 22
c-15 12 -97 87 -180 167 -135 127 -153 148 -153 177 0 26 -14 46 -93 124 l-92
92 -128 0 -127 0 0 37 c0 121 -124 210 -255 183 -179 -37 -228 -266 -82 -384
33 -26 48 -31 107 -34 57 -3 77 0 110 17 36 18 58 21 177 21 l136 0 66 -62
c47 -45 70 -75 79 -105 10 -33 42 -70 174 -197 l162 -156 -74 -75 c-41 -41
-77 -75 -81 -75 -13 0 -215 192 -223 213 -5 12 -22 48 -38 80 -15 32 -28 68
-28 81 0 17 -16 36 -57 67 l-58 44 -133 -4 c-130 -3 -133 -2 -163 23 -37 31
-68 40 -112 32 -81 -16 -121 -101 -82 -176 30 -58 122 -79 180 -40 24 16 47
20 117 20 l87 0 88 -97 c48 -54 136 -148 196 -208 59 -61 107 -116 107 -121 0
-5 -18 -27 -39 -48 l-39 -38 -189 180 -188 181 -227 1 -228 0 0 -65 0 -65 187
0 186 0 161 -157 c89 -87 162 -163 164 -168 2 -9 -148 -155 -167 -162 -3 -2
-66 51 -139 117 l-134 120 -129 0 -129 0 0 -66 0 -66 126 4 125 4 90 -94 c49
-52 89 -97 89 -101 0 -4 -33 -38 -72 -76 -182 -171 -298 -290 -298 -305 0 -17
113 -130 328 -329 67 -62 122 -116 122 -120 0 -3 -16 -23 -35 -43 l-34 -36
-220 -8 -221 -7 0 -58 0 -59 246 0 c161 0 253 4 267 11 12 6 43 32 69 57 l47
45 53 -49 c29 -27 53 -50 53 -51 0 -1 -42 -45 -93 -98 l-93 -95 -275 0 -274 0
0 -65 0 -65 313 0 312 0 112 111 111 111 51 -47 c28 -26 51 -52 51 -57 0 -5
-64 -77 -142 -159 l-142 -149 -333 0 -333 0 0 -60 0 -60 367 0 367 0 165 164
166 165 54 -50 54 -50 -44 -46 c-24 -25 -102 -103 -173 -172 -70 -69 -135
-139 -143 -156 -9 -16 -47 -78 -85 -137 l-70 -108 -77 0 -76 0 -23 40 c-46 81
-145 127 -251 117 -66 -6 -112 -26 -159 -71 -59 -55 -77 -100 -77 -196 0 -75
3 -91 27 -132 73 -124 225 -171 348 -108 53 27 118 105 131 155 l11 43 106 4
c59 3 114 8 122 12 8 4 55 75 105 159 87 149 92 155 258 317 93 91 174 167
179 169 12 4 98 -78 98 -94 0 -5 -52 -57 -115 -113 -62 -57 -123 -120 -133
-140 -114 -214 -103 -201 -196 -258 -193 -121 -335 -258 -500 -484 -41 -55
-55 -67 -92 -76 -42 -11 -45 -11 -79 21 -77 73 -220 65 -297 -16 -63 -66 -75
-160 -32 -247 44 -89 143 -136 234 -112 80 22 123 60 159 141 16 38 28 49 86
78 87 44 126 79 172 154 94 159 210 275 398 399 l140 93 65 122 c58 110 74
130 150 200 47 42 101 91 120 109 l35 32 59 -53 59 -54 -104 -113 c-57 -62
-140 -153 -184 -203 -44 -49 -148 -157 -231 -240 -83 -82 -175 -184 -204 -225
-29 -41 -101 -120 -159 -175 -58 -54 -176 -167 -261 -250 -142 -139 -158 -152
-194 -154 -50 -2 -73 -15 -96 -54 -51 -82 2 -187 93 -187 69 0 137 54 137 110
0 21 39 65 203 226 111 109 228 222 260 251 31 28 79 83 105 121 42 62 249
283 613 656 l127 129 56 -48 c31 -27 56 -54 56 -59 0 -6 -344 -355 -765 -776
-631 -631 -765 -770 -765 -792 0 -32 41 -68 78 -68 21 0 177 151 795 770 423
424 772 770 775 770 4 -1 42 -34 85 -74 l78 -72 -459 -465 c-253 -255 -471
-479 -486 -496 -24 -29 -34 -33 -74 -33 -120 0 -95 19 -469 -356 -228 -229
-343 -351 -343 -364 0 -28 47 -70 79 -70 21 0 90 64 351 325 l325 325 70 0 70
0 518 510 c285 281 523 510 529 510 11 0 130 -107 136 -121 4 -9 -71 -87 -538
-567 -151 -156 -278 -288 -281 -294 -4 -5 -33 -13 -66 -17 l-61 -7 -342 -345
c-189 -189 -349 -354 -357 -366 -11 -17 -12 -27 -3 -42 16 -31 56 -54 83 -47
13 3 180 160 372 348 191 189 355 346 364 350 9 4 32 7 51 7 31 1 46 12 120
88 46 49 238 245 427 436 l343 348 55 -47 c30 -26 55 -50 55 -53 0 -4 -207
-213 -460 -466 l-460 -460 0 -206 c0 -171 -3 -209 -15 -219 -21 -17 -36 -81
-29 -119 9 -43 55 -87 99 -95 50 -10 118 22 140 65 26 48 15 112 -24 153 l-31
32 0 169 0 169 133 130 c73 72 272 269 443 437 l310 306 42 -37 c23 -21 42
-42 42 -48 0 -5 -88 -95 -195 -199 l-195 -189 0 -182 0 -182 -53 0 c-117 0
-207 -60 -246 -164 -34 -92 -24 -168 34 -247 87 -121 268 -133 379 -25 79 77
98 204 46 306 -19 38 -21 49 -11 75 6 19 11 99 11 196 l0 165 133 129 c73 72
152 149 177 172 l45 42 58 -53 c31 -29 57 -57 57 -62 0 -5 -58 -68 -130 -139
l-130 -130 0 -292 0 -293 54 0 c47 0 54 3 60 22 3 13 6 127 6 254 l0 231 130
122 130 123 58 -53 c31 -28 57 -55 57 -59 0 -5 -37 -47 -82 -95 l-83 -88 0
-109 0 -109 53 3 52 3 5 60 5 60 88 84 87 85 55 -54 c30 -30 55 -57 55 -60 0
-3 -31 -37 -70 -77 l-70 -71 0 -81 c0 -78 -1 -81 -31 -103 -82 -61 -78 -182 7
-223 41 -19 68 -19 111 2 65 30 93 121 58 183 -8 14 -14 52 -15 87 l0 61 63
56 c34 31 65 56 68 56 3 0 78 -70 167 -155 89 -85 167 -155 173 -155 6 0 82
70 168 155 l157 154 62 -55 62 -56 0 -62 c0 -38 -6 -76 -16 -95 -32 -65 -2
-150 63 -178 47 -19 95 -10 135 26 26 23 32 37 36 85 l5 57 -47 43 -46 43 0
84 0 85 -65 64 c-36 35 -65 67 -65 70 0 3 24 26 54 52 l54 47 86 -80 c78 -73
86 -84 86 -117 0 -73 7 -82 61 -82 l49 0 0 108 0 107 -85 85 -85 84 57 58 c32
32 60 58 64 58 3 0 17 -10 31 -22 13 -13 70 -65 126 -117 l102 -94 0 -248 0
-249 60 0 60 0 0 290 0 290 -132 130 -133 130 57 57 57 57 87 -80 c48 -43 129
-120 181 -169 l93 -91 0 -164 c0 -128 4 -172 15 -194 14 -27 14 -32 -10 -79
-28 -58 -33 -141 -13 -211 16 -55 99 -138 154 -154 131 -39 269 24 322 147 19
46 18 145 -2 193 -41 97 -136 158 -243 158 l-63 0 0 183 1 182 -198 192 -198
192 42 42 41 42 29 -22 c15 -13 218 -210 451 -438 l422 -415 0 -169 c0 -166 0
-169 -23 -184 -76 -49 -57 -197 29 -225 70 -23 155 18 172 83 11 43 -1 103
-27 131 -20 21 -21 32 -21 227 l0 205 -441 434 c-243 239 -447 444 -455 455
-13 21 -11 25 28 65 39 39 44 41 64 28 12 -7 210 -197 439 -423 396 -389 420
-410 460 -415 40 -5 62 -25 400 -355 245 -241 365 -351 382 -353 48 -7 90 54
68 98 -7 14 -85 95 -172 180 -87 85 -243 239 -348 341 -180 178 -192 188 -237
194 -46 7 -57 17 -470 426 l-423 418 52 52 52 53 93 -86 c116 -107 885 -872
997 -991 64 -68 88 -87 109 -87 51 1 91 53 71 92 -6 13 -269 282 -585 598
l-575 576 34 32 34 33 279 -273 c671 -655 753 -733 969 -923 88 -77 222 -200
298 -273 95 -91 146 -132 161 -132 34 0 76 37 76 67 0 33 -155 192 -355 366
-285 249 -519 471 -1040 990 l-280 278 60 55 c33 29 63 54 67 54 12 0 289
-260 494 -462 156 -154 184 -178 211 -178 35 0 73 38 73 73 0 13 -113 131
-330 345 -181 178 -330 328 -330 333 0 9 75 81 90 87 5 2 71 -54 148 -123
l139 -125 23 -81 23 -81 164 -156 c168 -162 172 -167 193 -273 12 -61 14 -63
275 -308 224 -211 285 -273 291 -299 20 -81 67 -118 141 -109 135 15 148 200
16 236 -19 6 -41 7 -48 4 -9 -3 -108 83 -262 229 -137 129 -253 241 -259 249
-14 17 -59 141 -68 189 -5 26 -20 46 -59 77 -29 22 -97 84 -152 136 -97 92
-102 98 -134 183 -33 89 -33 89 -173 224 l-139 135 38 37 c21 21 43 38 48 38
6 0 69 -58 141 -128 130 -126 132 -128 173 -227 23 -55 49 -116 58 -136 11
-27 27 -42 56 -55 136 -62 356 -279 437 -432 42 -80 77 -114 167 -164 63 -34
74 -44 83 -77 5 -20 26 -56 46 -79 81 -95 232 -90 321 12 122 138 23 351 -162
350 -65 0 -109 -18 -148 -60 l-24 -26 -44 22 c-35 17 -67 51 -159 172 -126
164 -229 264 -379 367 -73 50 -92 68 -102 99 -6 20 -26 66 -44 102 -18 36 -37
81 -44 101 -7 22 -28 48 -59 71 -26 20 -83 73 -127 117 l-79 81 34 35 c19 19
37 35 42 35 4 0 75 -64 157 -142 149 -143 193 -199 328 -411 28 -45 58 -90 65
-100 11 -15 33 -19 120 -24 l107 -6 12 -36 c26 -77 66 -124 138 -162 96 -49
208 -31 293 49 114 106 117 274 7 384 -106 106 -282 102 -385 -10 -19 -21 -37
-45 -40 -55 -5 -15 -16 -17 -81 -15 l-76 3 -70 95 c-38 52 -81 120 -95 150
-21 44 -60 86 -180 199 -85 80 -161 155 -169 168 -15 22 -14 25 26 63 22 22
44 40 49 40 4 0 86 -74 182 -165 l175 -164 348 -1 347 0 0 60 0 60 -318 0
-318 0 -152 153 c-84 85 -152 158 -152 163 0 5 20 29 45 54 l44 43 119 -111
120 -112 306 0 306 0 0 65 0 65 -273 0 -272 0 -98 98 -99 99 52 43 51 42 54
-51 54 -51 265 0 266 0 0 59 c0 73 13 69 -250 71 l-195 1 -32 32 c-18 18 -33
37 -33 43 0 6 57 64 128 130 227 211 322 307 322 325 0 18 -170 190 -317 320
l-71 64 91 92 91 92 131 3 130 3 3 63 3 62 -128 0 -128 0 -143 -116 -144 -115
-76 69 c-43 38 -77 74 -77 79 0 6 76 83 168 172 l168 161 179 0 180 0 0 65 0
65 -234 0 -234 0 -167 -172 c-92 -95 -174 -177 -182 -182 -11 -6 -25 2 -49 25
-19 18 -34 37 -34 43 0 6 69 80 153 166 84 85 177 181 206 213 l54 59 70 1
c58 2 75 -2 100 -20 93 -69 232 26 197 132 -19 57 -53 80 -120 80 -50 0 -63
-4 -87 -27 -29 -27 -32 -28 -152 -28 l-124 0 -53 -46 c-34 -29 -54 -54 -54
-67 0 -12 -16 -53 -36 -92 -30 -59 -54 -87 -155 -178 l-119 -108 -80 73 -80
73 162 161 c90 91 171 180 183 203 12 24 54 71 94 107 l72 64 114 0 c97 0 120
-3 147 -20 48 -29 135 -27 196 4 57 29 75 48 101 106 73 161 -78 336 -250 290
-85 -23 -139 -87 -154 -182 l-6 -38 -100 0 -100 0 -99 -97 c-77 -75 -100 -104
-100 -124 0 -19 -13 -38 -42 -65 -24 -20 -108 -100 -187 -176 l-144 -139 -62
58 c-35 32 -63 61 -64 65 -2 13 558 549 709 678 85 73 198 175 251 227 82 81
97 92 108 79 20 -24 109 -49 152 -43 166 22 247 192 159 335 -59 96 -218 117
-307 39 -41 -36 -72 -97 -73 -141 0 -34 -84 -117 -335 -332 -83 -71 -238 -214
-345 -319 -309 -302 -408 -397 -428 -411 -17 -11 -26 -6 -87 56 l-67 68 223
217 c388 377 1179 1179 1179 1195 0 24 -29 60 -57 71 -20 7 -32 5 -52 -7 -34
-23 -440 -438 -462 -472 -25 -42 -866 -865 -925 -906 -19 -14 -25 -11 -89 50
l-67 64 428 424 c533 525 522 516 577 516 41 0 43 2 397 355 259 259 362 355
378 355 33 0 76 25 96 54 20 32 21 105 0 134 -63 90 -214 53 -214 -53 0 -19
-81 -106 -353 -378 -331 -332 -356 -354 -396 -361 -80 -12 -58 7 -581 -510
-157 -154 -321 -316 -366 -359 l-80 -78 -47 45 c-26 24 -47 48 -47 54 0 9 565
566 993 977 l197 190 0 77 0 77 63 31 c76 38 110 69 137 126 36 78 18 187 -43
252 -67 72 -202 91 -288 40 -82 -48 -128 -143 -114 -238 7 -49 40 -114 74
-144 18 -16 21 -31 21 -90 l0 -71 -142 -139 c-79 -77 -289 -284 -468 -460
-179 -177 -376 -371 -438 -431 l-112 -109 -63 62 -62 62 528 528 c571 572 556
554 502 607 -24 25 -50 31 -72 17 -7 -4 -249 -243 -538 -530 -290 -287 -531
-522 -536 -522 -6 0 -27 16 -47 36 l-37 36 383 380 382 380 0 108 0 108 69 4
c55 3 76 9 109 32 81 55 107 176 59 267 -72 136 -280 135 -357 -1 -24 -43 -25
-54 -30 -250 l-4 -205 -368 -364 -369 -365 -35 36 -36 35 296 294 296 294 0
362 c0 405 7 371 -77 364 l-43 -3 0 -317 0 -316 -288 -288 c-158 -158 -291
-287 -295 -287 -8 0 -80 77 -85 91 -2 5 22 35 52 67 l56 59 0 172 0 172 38 -8
c182 -39 342 83 345 263 2 192 -203 321 -379 238 -119 -56 -177 -218 -124
-342 l23 -53 -22 -23 c-20 -21 -21 -32 -21 -187 l0 -165 -50 -49 -50 -49 -60
59 -60 59 50 51 c53 53 62 84 39 128 -16 30 -28 37 -69 37 -29 0 -44 -10 -95
-60 l-61 -60 -58 54 -59 54 61 68 62 69 0 90 0 91 30 11 c69 26 92 142 40 198
-49 52 -130 53 -180 3 -36 -35 -47 -88 -32 -145 7 -24 12 -72 12 -106 l0 -64
-80 -78 -81 -78 -37 35 c-20 19 -85 78 -144 132 l-108 98 -132 -122 c-73 -67
-140 -125 -148 -130 -12 -6 -35 10 -92 67 -73 71 -77 77 -84 131 -5 39 -3 65
7 87 21 48 18 129 -7 162 -50 67 -154 64 -202 -7 -34 -50 -27 -123 15 -161 17
-14 36 -28 43 -31 9 -3 14 -29 16 -84 2 -43 3 -85 3 -92 1 -8 26 -39 56 -71
30 -32 55 -62 55 -67 0 -5 -25 -34 -55 -64 l-54 -54 -58 62 c-48 51 -64 62
-90 62 -45 0 -62 -9 -78 -41 -24 -45 -18 -66 35 -121 l50 -52 -55 -55 -55 -56
-50 50 -50 49 0 165 c0 140 -3 167 -17 183 -15 17 -15 22 5 81 26 73 28 117 6
180 -62 181 -294 234 -434 99 -80 -78 -99 -188 -52 -296 55 -123 175 -182 315
-153 l37 8 0 -174 0 -173 55 -53 c30 -29 55 -58 54 -65 0 -6 -20 -28 -43 -48
l-42 -37 -115 112 c-63 62 -194 187 -290 280 l-174 167 -3 319 -3 319 -55 4
c-31 1 -58 1 -60 -1z m-1164 -241 c46 -46 11 -140 -53 -140 -22 0 -65 24 -79
44 -14 20 -8 63 13 90 26 33 88 37 119 6z m5945 -5 c33 -33 32 -70 -4 -106
-33 -33 -50 -35 -90 -14 -32 16 -41 33 -41 74 0 66 86 96 135 46z m-4156 -61
c13 -9 29 -32 37 -50 12 -29 12 -39 -2 -74 -39 -96 -172 -93 -204 4 -22 69 30
136 105 136 22 0 51 -7 64 -16z m2391 -14 c30 -28 32 -34 28 -82 -7 -67 -39
-98 -102 -98 -80 0 -132 72 -103 143 20 46 52 67 103 67 33 0 49 -7 74 -30z
m-1135 -440 c199 -184 175 -180 -44 7 l-84 71 -71 -62 c-75 -65 -181 -147
-206 -160 -8 -4 48 53 125 128 77 74 142 135 145 136 3 0 64 -54 135 -120z
m-544 -67 c-19 -35 -329 -327 -661 -623 -52 -46 -124 -111 -160 -145 -36 -33
-124 -112 -195 -175 -71 -63 -182 -162 -245 -220 -265 -240 -678 -608 -1031
-916 -207 -181 -491 -434 -632 -562 l-256 -233 142 -131 c78 -72 194 -179 257
-238 63 -58 228 -209 365 -335 224 -205 346 -318 625 -580 71 -67 419 -389
670 -620 35 -33 110 -103 165 -156 55 -52 134 -126 175 -164 91 -83 171 -158
265 -246 38 -36 180 -166 315 -290 135 -123 327 -302 428 -398 l183 -173 22
19 c58 51 283 257 367 338 216 206 884 824 1301 1204 63 57 155 143 204 191
50 47 209 196 355 331 237 219 680 631 1020 949 69 64 171 158 227 208 l103
91 -163 149 c-89 82 -187 171 -218 198 -30 27 -134 119 -230 204 -96 86 -190
169 -210 185 -59 49 -694 603 -815 711 -96 86 -403 363 -864 778 -74 66 -182
163 -240 215 -171 153 -317 292 -368 351 l-47 55 40 -29 c125 -93 378 -305
525 -440 30 -28 167 -150 305 -271 137 -121 282 -249 320 -285 39 -36 120
-110 180 -166 61 -56 225 -201 365 -324 140 -123 293 -258 340 -300 47 -42
150 -132 230 -200 80 -69 242 -210 360 -315 118 -105 283 -249 365 -319 166
-143 235 -206 235 -218 0 -6 -162 -159 -530 -498 -80 -74 -217 -202 -305 -285
-88 -84 -221 -208 -295 -276 -74 -68 -209 -194 -300 -279 -240 -225 -543 -505
-875 -810 -215 -197 -523 -483 -845 -785 -129 -121 -257 -240 -285 -266 -27
-25 -99 -91 -158 -147 l-108 -102 -122 112 c-67 62 -160 149 -207 194 -96 91
-244 227 -524 483 -105 96 -317 292 -471 436 -154 144 -379 353 -500 466 -121
112 -319 297 -440 410 -235 220 -428 398 -560 519 -411 375 -885 820 -885 830
0 5 46 48 102 97 56 48 147 129 203 178 55 50 213 190 350 310 323 283 815
720 1124 1000 134 121 274 246 310 279 340 303 524 468 626 561 205 188 561
485 581 485 3 0 0 -8 -5 -17z m584 -184 c98 -30 179 -91 405 -303 53 -50 394
-360 796 -722 104 -94 246 -221 315 -282 69 -61 139 -125 154 -144 44 -52 77
-133 83 -204 l5 -64 185 -162 c102 -90 236 -206 297 -260 207 -179 272 -268
302 -415 27 -133 -6 -269 -98 -407 -49 -74 -294 -318 -699 -696 -185 -173
-205 -191 -425 -395 -77 -71 -169 -157 -205 -190 -36 -34 -105 -99 -155 -145
-142 -133 -231 -215 -380 -356 -353 -331 -430 -394 -527 -439 -142 -65 -301
-60 -453 14 -92 45 -98 50 -258 196 -224 206 -315 290 -559 520 -134 127 -336
313 -448 415 -113 102 -243 221 -290 265 -47 44 -124 116 -170 159 -47 44
-168 159 -270 256 -102 97 -207 196 -234 221 -119 107 -222 269 -247 387 -19
91 -8 227 23 295 56 120 92 157 523 537 l230 202 11 67 c24 132 65 194 228
338 61 54 234 211 385 348 151 138 350 318 441 400 91 83 236 214 322 293 189
173 250 222 320 252 118 51 267 58 393 19z m2296 -1919 c481 -407 625 -544
672 -639 29 -59 32 -74 32 -156 0 -68 -5 -98 -19 -125 -48 -91 -131 -166 -336
-305 l-115 -78 156 154 c173 171 215 233 226 341 8 80 -24 179 -83 258 -26 34
-169 177 -318 318 -451 427 -475 453 -215 232z m-4748 147 c-8 -14 -128 -129
-393 -377 -338 -316 -391 -386 -398 -525 -2 -39 1 -89 7 -112 24 -90 159 -252
331 -397 57 -48 39 -39 -79 42 -275 187 -355 286 -355 437 0 146 72 239 423
540 96 83 240 207 320 277 80 70 147 127 149 127 2 1 -1 -5 -5 -12z m-1331
-2657 c85 -66 39 -200 -68 -200 -46 0 -97 39 -108 81 -12 47 -3 80 30 112 34
34 108 38 146 7z m7395 0 c46 -27 62 -84 38 -134 -53 -111 -215 -71 -215 53 0
20 11 43 31 66 26 29 38 35 73 35 23 0 55 -9 73 -20z m-4102 -1029 c38 -29
103 -69 144 -89 72 -36 79 -37 180 -37 95 0 112 3 165 28 68 31 159 94 234
162 28 26 52 42 52 37 0 -13 -135 -166 -194 -220 -124 -114 -310 -133 -447
-46 -56 35 -167 142 -224 216 -41 54 -43 58 -14 32 19 -17 65 -55 104 -83z
m-1244 -754 c68 -45 63 -128 -10 -171 -31 -18 -37 -18 -75 -5 -31 11 -45 23
-60 52 -16 34 -17 42 -5 74 9 23 27 42 49 54 45 24 60 24 101 -4z m3226 6
c102 -48 54 -205 -57 -189 -97 14 -123 154 -35 192 40 17 50 17 92 -3z"/>
<path d="M4985 7745 c-146 -30 -118 -8 -890 -710 -163 -148 -384 -348 -491
-443 -230 -205 -247 -229 -249 -356 l-2 -79 -84 -76 c-144 -130 -264 -249
-257 -257 10 -9 196 131 389 293 14 11 18 11 28 -1 9 -11 -11 -34 -111 -122
-300 -267 -344 -311 -368 -366 -17 -39 -24 -72 -24 -123 0 -121 9 -132 382
-482 180 -169 402 -375 492 -458 177 -160 322 -295 685 -635 338 -317 362
-337 434 -373 62 -30 71 -32 181 -32 113 0 118 1 190 37 80 39 193 139 761
673 135 127 326 304 424 395 810 746 777 712 797 831 14 83 -6 157 -59 222
-21 25 -131 127 -245 227 -115 101 -208 188 -208 196 0 33 29 17 152 -86 139
-116 265 -206 275 -196 10 10 -47 69 -196 203 l-146 132 0 78 c0 126 -10 140
-273 375 -243 217 -683 615 -927 838 -211 193 -251 226 -309 254 -100 48 -235
64 -351 41z m231 -76 c133 -25 177 -59 729 -564 121 -110 315 -286 430 -390
373 -334 398 -363 397 -446 -1 -48 -14 -73 -66 -127 -36 -38 -39 -45 -25 -55
9 -7 118 -103 242 -215 263 -236 284 -264 275 -375 -6 -75 -24 -113 -81 -170
-23 -23 -217 -205 -432 -402 -214 -198 -460 -425 -545 -505 -86 -80 -241 -224
-345 -320 -104 -96 -223 -207 -264 -246 -229 -215 -275 -247 -378 -260 -67 -8
-177 11 -225 40 -21 12 -129 108 -240 212 -111 104 -232 216 -268 250 -36 33
-137 128 -225 210 -88 82 -210 194 -270 249 -104 94 -168 154 -345 320 -85 80
-276 255 -429 395 -118 108 -151 161 -151 245 0 102 49 164 305 390 138 122
215 195 215 204 0 5 -8 15 -17 22 -42 35 -73 92 -73 136 0 82 42 133 296 359
135 121 484 438 654 594 380 351 445 402 545 433 91 29 193 34 291 16z"/>
<path d="M4541 7166 c-4 -89 -50 -183 -123 -252 -41 -40 -201 -162 -429 -326
-179 -131 -248 -221 -270 -357 -10 -66 0 -167 26 -241 23 -67 107 -172 183
-229 77 -58 207 -118 336 -156 49 -14 90 -24 92 -22 4 4 94 286 94 296 0 4
-28 15 -62 25 -137 38 -237 108 -282 198 -30 59 -32 93 -11 162 23 77 49 110
230 296 180 186 220 243 250 355 24 94 15 234 -19 280 -10 15 -12 10 -15 -29z"/>
<path d="M5647 7200 c-38 -98 -42 -229 -8 -325 32 -90 79 -153 235 -314 168
-173 202 -215 227 -281 37 -99 17 -192 -57 -264 -45 -43 -157 -101 -231 -118
-29 -7 -53 -17 -53 -23 0 -9 90 -286 95 -293 6 -7 229 75 301 110 151 74 255
178 306 306 19 48 23 76 23 172 0 108 -2 119 -30 175 -44 87 -127 165 -338
314 -373 263 -435 331 -456 496 -4 33 -10 53 -14 45z"/>
<path d="M4100 6234 c0 -41 39 -114 86 -161 53 -52 156 -101 245 -118 34 -6
36 -5 46 29 10 34 10 36 -11 36 -37 0 -169 40 -217 67 -53 28 -110 84 -133
128 -9 17 -16 25 -16 19z"/>
<path d="M6091 6229 c-2 -33 -62 -99 -121 -133 -60 -36 -182 -76 -227 -76 -26
0 -28 -7 -13 -44 12 -32 20 -32 119 -1 109 35 190 95 226 168 15 31 25 66 22
79 -2 13 -5 16 -6 7z"/>
<path d="M4568 5963 c-9 -32 -63 -222 -121 -423 -58 -201 -107 -376 -110 -390
-5 -22 5 -35 81 -101 48 -41 101 -86 119 -99 19 -14 35 -35 38 -54 8 -39 60
-222 85 -298 13 -40 19 -93 21 -174 l2 -117 70 -96 c39 -53 81 -111 94 -128
l24 -33 230 0 229 0 95 128 95 127 0 112 c0 85 5 127 19 170 24 69 76 255 86
300 5 26 30 52 118 125 62 50 118 97 125 103 10 9 -4 71 -76 321 -84 289 -171
576 -176 582 -2 1 -103 -14 -225 -33 -122 -19 -225 -35 -230 -35 -4 0 -11 -87
-15 -192 -14 -405 -34 -773 -41 -766 -8 8 -39 580 -47 856 l-3 102 -30 5 c-16
2 -113 16 -215 30 -102 14 -194 28 -205 31 -18 4 -23 -3 -37 -53z m53 -645
l90 -62 -7 -41 c-11 -67 -12 -67 -101 -18 l-83 45 0 69 c0 38 3 69 6 69 3 0
46 -28 95 -62z m1057 -10 l-3 -72 -75 -43 c-41 -24 -78 -43 -81 -43 -6 0 -31
111 -26 115 15 14 174 114 180 115 4 0 7 -33 5 -72z m-808 -552 c0 -132 -2
-237 -5 -234 -6 6 -31 235 -44 403 -5 66 -13 129 -17 140 -4 11 9 0 29 -25
l37 -45 0 -239z m511 112 c-12 -172 -30 -340 -37 -347 -2 -2 -4 29 -4 70 0 41
-3 144 -6 229 l-7 155 28 33 c15 18 30 31 32 28 3 -2 0 -78 -6 -168z"/>
<path d="M3690 5593 c1 -10 268 -316 284 -324 22 -13 270 -59 277 -52 9 10 55
157 64 203 l6 35 -213 53 c-214 52 -389 92 -408 92 -5 0 -10 -3 -10 -7z"/>
<path d="M6400 5579 c-41 -11 -174 -43 -295 -73 -193 -47 -220 -56 -217 -72 1
-11 17 -65 34 -122 28 -92 34 -103 52 -98 12 2 72 15 134 27 l113 22 118 131
c134 148 171 191 171 200 0 10 -29 6 -110 -15z"/>
<path d="M2783 5681 c-120 -100 -206 -207 -239 -296 -25 -68 -25 -201 0 -275
36 -105 174 -358 254 -462 39 -52 67 -67 32 -18 -12 17 -19 30 -17 30 10 0 95
-75 268 -235 241 -222 518 -476 649 -595 58 -52 166 -152 240 -221 173 -161
547 -507 678 -627 155 -142 274 -192 454 -192 177 0 311 55 446 181 182 172
221 209 372 349 85 79 157 147 160 150 6 6 386 356 455 420 91 82 288 264 375
345 136 127 302 279 345 316 22 19 53 46 70 61 40 37 49 35 29 -4 l-16 -33 30
35 c40 46 141 208 202 323 168 318 130 498 -158 745 -34 30 -62 52 -62 50 0
-2 10 -24 21 -48 61 -126 65 -432 9 -640 -14 -54 -18 -58 -840 -839 -107 -102
-225 -215 -262 -252 l-68 -66 0 57 0 58 348 338 c334 326 616 595 713 679 44
39 46 43 62 131 10 51 17 116 17 145 l-1 54 -14 -33 c-25 -57 -70 -106 -228
-249 -84 -75 -188 -172 -232 -214 -44 -42 -128 -121 -187 -175 -59 -54 -221
-205 -360 -334 -139 -130 -309 -287 -378 -350 -69 -62 -190 -175 -270 -250
-275 -260 -320 -293 -441 -325 -71 -19 -190 -19 -264 0 -138 36 -127 27 -781
635 -361 336 -659 611 -774 715 -338 305 -540 502 -561 550 -18 40 -19 40 -19
10 0 -41 27 -203 40 -241 7 -21 105 -120 298 -300 370 -347 791 -754 803 -776
5 -9 9 -38 9 -63 l0 -47 -147 138 c-430 402 -943 890 -977 930 -67 79 -86 168
-86 409 0 169 12 243 50 318 11 20 18 37 15 37 -2 0 -30 -22 -62 -49z m1126
-1458 c104 -100 133 -133 130 -150 -4 -19 -13 -13 -79 50 -42 40 -126 120
-188 179 -76 72 -112 113 -112 128 0 19 7 16 58 -28 31 -28 117 -108 191 -179z
m2630 184 c-23 -43 -376 -370 -390 -361 -19 11 13 52 124 156 211 197 259 238
269 231 5 -2 3 -14 -3 -26z m-2194 -687 l-7 -82 -18 29 c-9 16 -31 40 -47 54
-30 26 -125 134 -156 179 -12 17 -17 44 -17 90 l0 65 126 -126 126 -126 -7
-83z m1745 250 c0 -30 -7 -61 -18 -80 -19 -31 -106 -131 -179 -207 l-43 -44 0
83 0 83 112 110 c62 61 116 109 121 107 4 -2 7 -25 7 -52z m-1337 -553 c3 -12
2 -51 -2 -87 -6 -58 -8 -63 -19 -43 -6 12 -20 29 -29 38 -10 9 -53 51 -95 93
l-78 77 0 73 0 74 109 -102 c60 -56 112 -111 114 -123z m915 136 l-5 -78 -86
-88 -87 -88 0 78 0 78 83 87 c45 48 86 87 91 88 5 0 6 -35 4 -77z"/>
<path d="M982 5246 c-85 -47 -81 -195 7 -241 37 -19 72 -19 115 -1 98 41 111
183 22 237 -36 22 -110 25 -144 5z"/>
<path d="M9059 5245 c-66 -36 -80 -157 -24 -215 98 -103 274 14 223 148 -27
71 -128 105 -199 67z"/>
<path d="M5024 1403 c-93 -46 -80 -200 20 -238 42 -16 46 -16 90 3 74 33 104
106 74 179 -6 15 -11 31 -10 36 1 4 -1 6 -5 5 -5 -1 -22 6 -40 15 -39 21 -88
21 -129 0z"/>
</g>
</svg>
